<svg width="78" height="24" viewBox="0 0 78 24" fill="none" xmlns="http://www.w3.org/2000/svg">
<g clip-path="url(#clip0_2_58)">
<path d="M39.8051 23.961C39.4153 23.9513 39.0256 23.9513 38.6358 23.961C38.0999 23.9318 37.5639 23.9123 37.028 23.8733C35.6053 23.7661 34.1924 23.5518 32.8088 23.2302C28.0243 22.1194 23.8246 19.8879 20.1608 16.6431C19.8197 16.341 19.4982 16.0292 19.1669 15.7174C19.0889 15.6492 19.0207 15.5518 18.9817 15.4543C18.9233 15.3179 18.9525 15.1717 19.0499 15.0646C19.1474 14.9574 19.3033 14.9184 19.4397 14.9769C19.5274 15.0158 19.6151 15.0548 19.693 15.1035C23.1912 17.2667 27.011 18.8453 31.0158 19.7808C32.3605 20.0926 33.715 20.3362 35.0792 20.5116C37.0377 20.7552 39.0158 20.8429 40.9842 20.7747C42.0463 20.7454 43.0986 20.648 44.151 20.5116C46.6066 20.1998 49.0329 19.6443 51.3812 18.8648C52.6187 18.4555 53.827 17.9878 55.0061 17.4421C55.1815 17.3447 55.3958 17.3155 55.5907 17.3642C55.9123 17.4421 56.1072 17.7734 56.0292 18.095C56.0195 18.134 56 18.1827 55.9805 18.2217C55.9025 18.3678 55.7954 18.4945 55.6589 18.592C54.5384 19.4689 53.3301 20.2387 52.0536 20.8819C49.6468 22.0999 47.0743 22.9671 44.4239 23.4641C42.894 23.7369 41.3544 23.9026 39.8051 23.961Z" fill="black"/>
<path d="M25.3739 4.2095C25.6175 4.06334 25.8709 3.90743 26.134 3.77101C26.8161 3.42022 27.5761 3.24482 28.3459 3.2838C28.9013 3.31303 29.408 3.46894 29.7978 3.8782C30.1681 4.25822 30.3045 4.72594 30.3435 5.23264C30.3532 5.33983 30.3532 5.44702 30.3532 5.56395V10.6114C30.3532 11.0499 30.2947 11.1084 29.8562 11.1084H28.6675C28.5895 11.1084 28.5115 11.1084 28.4336 11.0987C28.3167 11.0889 28.2192 10.9915 28.1997 10.8745C28.1802 10.7674 28.1802 10.6602 28.1802 10.553V6.04141C28.19 5.85627 28.1705 5.68088 28.1218 5.50548C28.0438 5.20341 27.771 4.98904 27.4592 4.96955C26.8843 4.93057 26.3094 5.0475 25.7832 5.29111C25.7052 5.3106 25.6565 5.38855 25.6662 5.4665V10.592C25.6662 10.6894 25.6662 10.7771 25.6467 10.8745C25.6467 11.011 25.5396 11.1084 25.4031 11.1084C25.257 11.1181 25.1108 11.1181 24.9549 11.1181H23.922C23.5615 11.1181 23.4835 11.0305 23.4835 10.6699V6.0609C23.4835 5.89525 23.4738 5.71985 23.4348 5.5542C23.3666 5.2229 23.084 4.98904 22.7527 4.96955C22.1681 4.93057 21.5737 5.0475 21.0475 5.30085C20.9695 5.32034 20.9208 5.40804 20.9403 5.48599V10.6797C20.9403 11.0402 20.8623 11.1181 20.5018 11.1181H19.1961C18.855 11.1181 18.7673 11.0207 18.7673 10.6894V3.92692C18.7673 3.84896 18.7771 3.77101 18.7966 3.69306C18.8355 3.57613 18.9525 3.50792 19.0694 3.50792H20.2874C20.4628 3.50792 20.57 3.6151 20.6285 3.78076C20.6772 3.91717 20.7064 4.04385 20.7552 4.19001C20.8526 4.19001 20.9111 4.1218 20.9793 4.08283C21.5152 3.75152 22.0804 3.46894 22.7137 3.35201C23.201 3.25457 23.6882 3.25457 24.1754 3.35201C24.6334 3.44945 25.0426 3.72229 25.3057 4.11206C25.3252 4.14129 25.3447 4.16078 25.3642 4.18027C25.3544 4.19001 25.3642 4.19001 25.3739 4.2095Z" fill="black"/>
<path d="M45.5737 9.06212C45.6322 8.86723 45.6906 8.68209 45.7491 8.48721C46.1973 6.97686 46.6456 5.47625 47.0938 3.9659L47.1523 3.7905C47.201 3.6151 47.3666 3.50792 47.542 3.50792H49.0231C49.3934 3.50792 49.4714 3.6151 49.3447 3.9659L48.76 5.51522C48.1072 7.21072 47.4543 8.91596 46.8015 10.6114C46.782 10.6699 46.7527 10.7284 46.7333 10.7868C46.665 10.9915 46.4604 11.1279 46.246 11.1084C45.8173 11.0987 45.3885 11.0987 44.9598 11.1084C44.6577 11.1181 44.4823 10.9817 44.3752 10.7089C44.1315 10.0658 43.8782 9.41291 43.6346 8.76979C43.0499 7.23995 42.4555 5.71011 41.8709 4.17052C41.8124 4.05359 41.7734 3.91717 41.7442 3.7905C41.715 3.59562 41.7832 3.49817 41.9781 3.49817C42.5335 3.48843 43.0889 3.49817 43.6346 3.49817C43.8685 3.49817 43.9756 3.65408 44.0341 3.85871C44.1413 4.22899 44.2485 4.60901 44.3654 4.97929C44.7649 6.33374 45.1547 7.69793 45.5542 9.05237C45.5445 9.06212 45.5542 9.06212 45.5737 9.06212Z" fill="black"/>
<path d="M10.972 4.57978C11.0402 4.56029 11.0987 4.52132 11.1376 4.46285C11.313 4.28745 11.4982 4.1218 11.6931 3.96589C12.1998 3.57613 12.8331 3.38124 13.4665 3.42996C13.7199 3.43971 13.8075 3.51766 13.827 3.76127C13.8465 4.09257 13.8368 4.43362 13.8368 4.76492C13.8465 4.90134 13.8368 5.02801 13.8173 5.16443C13.7783 5.33983 13.7101 5.40804 13.5347 5.42753C13.3983 5.43727 13.2716 5.42753 13.1352 5.41778C12.4823 5.35932 11.849 5.48599 11.2351 5.69062C11.0987 5.73934 11.0987 5.83678 11.0987 5.94397V10.6212C11.0987 10.7089 11.0987 10.7868 11.0889 10.8745C11.0792 11.0012 10.9817 11.0987 10.8551 11.0987C10.7868 11.1084 10.7089 11.1084 10.6407 11.1084H9.37393C9.30572 11.1084 9.22777 11.1084 9.15956 11.0987C9.03289 11.0889 8.93544 10.9817 8.9257 10.8551C8.91595 10.7771 8.91595 10.6991 8.91595 10.6212V3.99513C8.91595 3.54689 8.96468 3.49817 9.41291 3.49817H10.3484C10.6017 3.49817 10.7186 3.58587 10.7868 3.82948C10.8551 4.07308 10.9135 4.31669 10.972 4.57978Z" fill="black"/>
<path d="M56.5554 14.4604C57.1985 14.4799 57.8319 14.5189 58.4555 14.6845C58.6309 14.7333 58.7966 14.7917 58.9622 14.8697C59.1863 14.9574 59.3325 15.1717 59.3617 15.4056C59.4007 15.6784 59.4105 15.961 59.391 16.2436C59.2643 17.9099 58.7479 19.5177 57.8904 20.9501C57.5786 21.4665 57.1985 21.9342 56.76 22.3435C56.6723 22.4312 56.5652 22.4994 56.4482 22.5384C56.2631 22.5871 56.1462 22.4896 56.1364 22.3045C56.1462 22.2071 56.1656 22.1096 56.2046 22.0122C56.5457 21.0962 56.877 20.19 57.1401 19.2448C57.296 18.7284 57.4032 18.2022 57.4714 17.6663C57.4909 17.4714 57.5006 17.2765 57.4811 17.0816C57.4714 16.7503 57.257 16.4677 56.9354 16.3703C56.6334 16.2728 56.3216 16.2144 56 16.1949C55.1035 16.1559 54.2071 16.1949 53.3203 16.3118L52.1413 16.458C52.0146 16.4677 51.8977 16.458 51.8295 16.341C51.7613 16.2241 51.7905 16.1072 51.8587 15.9903C51.9367 15.8831 52.0341 15.7856 52.151 15.7174C52.8721 15.201 53.6809 14.8892 54.5384 14.6845C55.201 14.5481 55.8733 14.4799 56.5554 14.4604Z" fill="black"/>
<path d="M52.4726 7.30816V10.8161C52.4531 11.011 52.3654 11.0987 52.1705 11.1084C51.6443 11.1181 51.1279 11.1181 50.6017 11.1084C50.4068 11.1084 50.3191 11.011 50.2996 10.8258C50.2899 10.7674 50.2899 10.6991 50.2899 10.6407V3.89769C50.2996 3.59562 50.3776 3.50792 50.6797 3.50792H52.0828C52.3849 3.50792 52.4726 3.59562 52.4726 3.89769V7.30816Z" fill="black"/>
<path d="M14.7723 7.28867V3.82948C14.782 3.59561 14.8697 3.50792 15.1036 3.49817C15.6103 3.48843 16.117 3.48843 16.6237 3.49817C16.8478 3.49817 16.916 3.56638 16.9355 3.7905C16.9452 3.8782 16.9452 3.95615 16.9452 4.04385V10.5335C16.9452 10.6407 16.9355 10.7479 16.9257 10.8551C16.916 10.9817 16.8185 11.0694 16.6919 11.0792C16.6334 11.0889 16.5847 11.0889 16.5262 11.0889H15.1718C15.123 11.0889 15.0841 11.0889 15.0354 11.0792C14.8989 11.0694 14.782 10.9622 14.7723 10.8258C14.7625 10.7479 14.7625 10.6699 14.7625 10.592C14.7723 9.51035 14.7723 8.39951 14.7723 7.28867Z" fill="black"/>
<path d="M15.9026 0.00974436C16.0585 1.43424e-07 16.2144 0.0292328 16.3605 0.0779539C16.8867 0.25335 17.1596 0.711328 17.1108 1.30572C17.0719 1.81242 16.6918 2.22168 16.1851 2.29963C15.9708 2.33861 15.7466 2.33861 15.5323 2.29963C14.9769 2.19245 14.5676 1.78319 14.6066 1.08161C14.665 0.389769 15.123 0.00974436 15.9026 0.00974436Z" fill="black"/>
<path d="M51.391 0.00974422C51.5859 -0.00974421 51.7807 0.0292327 51.9659 0.107186C52.3459 0.25335 52.609 0.604141 52.6285 1.0134C52.7064 1.90012 52.112 2.34836 51.3228 2.32887C51.2156 2.32887 51.1084 2.30938 51.0012 2.28989C50.3971 2.14373 50.0852 1.676 50.1437 1.00365C50.1924 0.467722 50.6114 0.0682095 51.1863 0.0194884C51.2546 0.00974422 51.3228 7.91624e-09 51.391 0.00974422Z" fill="black"/>
<path d="M7.47381 6.48965C7.43483 5.98295 7.29842 5.48599 7.09379 5.02801C6.69427 4.19001 6.08039 3.57613 5.14494 3.36175C4.07308 3.12789 3.1084 3.36175 2.23142 4.01462C2.17296 4.07308 2.10475 4.1218 2.0268 4.16078C2.00731 4.15104 1.98782 4.14129 1.98782 4.13155C1.95859 4.0341 1.9391 3.93666 1.90987 3.83922C1.83191 3.59561 1.73447 3.50792 1.47138 3.50792C1.17905 3.50792 0.876979 3.51766 0.584653 3.50792C0.360536 3.49817 0.155907 3.52741 0 3.7028C0 7.11328 0 10.5335 0.00974421 13.9342C0.136419 14.1389 0.331303 14.1778 0.55542 14.1681C0.906212 14.1583 1.257 14.1681 1.6078 14.1681C2.22168 14.1681 2.22168 14.1681 2.22168 13.5639V10.7868C2.22168 10.7186 2.19245 10.6407 2.26066 10.5822C2.74787 10.9622 3.34227 11.1961 3.95615 11.2546C4.81364 11.3423 5.59318 11.1279 6.24604 10.5432C6.72351 10.1047 7.0743 9.53959 7.25944 8.91596C7.52253 8.11693 7.54202 7.30816 7.47381 6.48965ZM5.14494 8.5067C5.07674 8.80877 4.92083 9.08161 4.69671 9.28624C4.44336 9.50061 4.13155 9.62728 3.80024 9.62728C3.30329 9.65652 2.81608 9.54933 2.37759 9.31547C2.2704 9.26675 2.20219 9.15956 2.21194 9.04263V7.27893C2.21194 6.69427 2.22168 6.10962 2.21194 5.52497C2.20219 5.38855 2.28015 5.27162 2.40682 5.2229C2.94275 4.96955 3.49817 4.85262 4.08283 4.96955C4.49208 5.02801 4.84287 5.29111 5.00853 5.67113C5.15469 5.98295 5.24239 6.324 5.26188 6.66504C5.32034 7.28867 5.32034 7.9123 5.14494 8.5067Z" fill="black"/>
<path d="M77.9732 6.70402V6.743C77.9342 6.70402 77.9147 6.64555 77.9342 6.59683V6.51888C77.9342 6.51888 77.9342 6.50914 77.944 6.50914H77.9342V6.41169H77.9537C77.9537 6.40195 77.944 6.40195 77.944 6.3922C77.9245 6.20706 77.8855 6.02192 77.8368 5.84653C77.4762 4.56029 76.6675 3.71255 75.352 3.38124C74.7381 3.23508 74.1145 3.21559 73.4909 3.31303C72.1754 3.50792 71.2302 4.2095 70.7722 5.45676C70.324 6.64555 70.3337 7.95128 70.782 9.14007C71.1717 10.2217 71.9513 10.9038 73.0719 11.1864C73.6663 11.3325 74.2899 11.3715 74.9038 11.2838C76.9501 11.0402 77.7978 9.49086 77.9342 8.14616H77.9245V8.00974C77.9147 7.95128 77.905 7.90256 77.9635 7.86358V7.88307C77.9635 7.87333 77.9732 7.85384 77.9829 7.84409V6.72351C77.9829 6.71376 77.9732 6.71376 77.9732 6.70402ZM75.6346 8.55542C75.5761 8.76005 75.4884 8.94519 75.3618 9.12058C75.1474 9.42265 74.8063 9.61754 74.4361 9.64677C74.2509 9.66626 74.0658 9.66626 73.8806 9.62728C73.4714 9.54933 73.1303 9.27649 72.9647 8.89647C72.8185 8.5944 72.7308 8.26309 72.7016 7.93179C72.6529 7.35688 72.6431 6.78197 72.7795 6.21681C72.8283 5.99269 72.9257 5.76858 73.0426 5.57369C73.257 5.2229 73.6273 4.99878 74.0365 4.96955C74.2217 4.95006 74.4068 4.95006 74.592 4.98904C74.9817 5.06699 75.3033 5.32034 75.4787 5.68088C75.6443 6.02192 75.7418 6.40195 75.7613 6.78197C75.771 6.95737 75.7808 7.13276 75.771 7.30816C75.8002 7.73691 75.7515 8.15591 75.6346 8.55542Z" fill="black"/>
<path d="M60.8916 0.0779533H59.5371C59.1669 0.0779533 59.0986 0.146163 59.0986 0.516443V3.67357C59.0986 3.74178 59.1279 3.80999 59.0792 3.8782C58.9915 3.86845 58.9427 3.80999 58.8745 3.77101C57.8611 3.17661 56.799 3.06943 55.7271 3.56638C54.9768 3.91717 54.5091 4.55055 54.207 5.30085C53.9147 6.02192 53.8465 6.78197 53.866 7.55177C53.866 8.27284 54.0316 8.98417 54.3532 9.62728C54.7235 10.3386 55.2594 10.8843 56.039 11.1181C57.1011 11.4495 58.095 11.2838 59.0012 10.6114C59.0694 10.5725 59.1084 10.5043 59.1961 10.4848C59.2448 10.592 59.2838 10.7089 59.3033 10.8258C59.3422 10.9817 59.4787 11.0889 59.6443 11.0889H59.8782C60.229 11.0889 60.57 11.0987 60.9111 11.0889C61.1839 11.0889 61.2619 11.0012 61.2716 10.7186V0.448233C61.2619 0.146163 61.1839 0.0779533 60.8916 0.0779533ZM59.1084 7.24969V9.02314C59.1279 9.14007 59.0597 9.24726 58.9525 9.29598C58.4848 9.55907 57.9488 9.66626 57.4226 9.58831C56.9744 9.53959 56.5846 9.26675 56.38 8.86723C56.2241 8.55542 56.1364 8.22412 56.1072 7.88307C56.0292 7.26918 56.0779 6.64555 56.2241 6.05116C56.2728 5.88551 56.3313 5.7296 56.419 5.57369C56.6236 5.19367 57.0134 4.95006 57.4421 4.92083C57.9586 4.87211 58.475 4.96955 58.9427 5.18392C59.0597 5.2229 59.1279 5.33983 59.1181 5.4665C59.0986 6.07064 59.1084 6.6553 59.1084 7.24969Z" fill="black"/>
<path d="M33.9099 7.92205C34.6407 8.05847 35.391 8.06821 36.1218 7.95128C36.5505 7.89281 36.9598 7.76614 37.3398 7.56151C37.7783 7.30816 38.0999 6.95737 38.2363 6.47016C38.5773 5.24239 38.0511 4.00487 36.7747 3.54689C36.151 3.34227 35.4884 3.27406 34.8356 3.36175C33.296 3.53715 32.2923 4.3849 31.8343 5.85627C31.5128 6.85993 31.5518 7.88307 31.8148 8.89647C32.1559 10.1924 33.0134 10.9622 34.3094 11.2351C35.0499 11.4007 35.8002 11.3715 36.5408 11.2546C36.9306 11.1864 37.3203 11.0889 37.6906 10.9428C37.9147 10.8551 38.0317 10.7186 38.0219 10.4653C38.0122 10.2314 38.0219 9.98782 38.0219 9.74421C38.0219 9.45189 37.905 9.36419 37.6224 9.4324C37.3398 9.50061 37.067 9.55907 36.7844 9.61754C36.1803 9.74421 35.5566 9.74421 34.9525 9.63703C34.1242 9.47138 33.5883 8.76005 33.637 7.88307C33.7247 7.89281 33.8222 7.90256 33.9099 7.92205ZM33.6662 6.43118C33.6955 6.19732 33.7637 5.9732 33.8514 5.75883C34.1437 5.0475 34.7576 4.8039 35.3812 4.84287C35.5566 4.85262 35.732 4.8916 35.8977 4.95981C36.151 5.06699 36.3167 5.30085 36.3459 5.57369C36.3751 5.73934 36.3654 5.91474 36.3167 6.08039C36.1997 6.43118 35.9172 6.57734 35.5761 6.64555C35.3715 6.69427 35.1571 6.71376 34.9427 6.69427C34.5627 6.69427 34.1729 6.66504 33.7929 6.60658C33.6468 6.58709 33.6468 6.58709 33.6662 6.43118Z" fill="black"/>
<path d="M66.7771 8.01949C67.3423 7.98051 67.9074 7.87333 68.4141 7.60049C68.9306 7.34714 69.2911 6.86967 69.3983 6.30451C69.4665 5.95372 69.4665 5.58344 69.3886 5.23264C69.1839 4.35566 68.6285 3.80999 67.7905 3.52741C67.3228 3.38124 66.8258 3.32278 66.3386 3.34227C64.7016 3.38124 63.4543 4.2095 62.9476 5.84653C62.6066 6.92814 62.6553 8.02923 62.9866 9.11084C63.3277 10.2217 64.1072 10.894 65.218 11.1961C65.6955 11.313 66.1925 11.3618 66.6797 11.3423C67.391 11.3325 68.1023 11.1961 68.7747 10.9428C69.0573 10.8356 69.1255 10.7381 69.1255 10.4361V9.73447C69.1157 9.45189 68.9988 9.35445 68.7162 9.42266C68.5018 9.48112 68.2972 9.52984 68.0828 9.57856C67.43 9.73447 66.7479 9.7637 66.0853 9.64677C65.4227 9.5201 64.9744 9.14007 64.799 8.47747C64.7503 8.28258 64.7113 8.0877 64.6919 7.88307C64.7406 7.88307 64.7893 7.88307 64.8283 7.90256C65.4714 8.01949 66.1243 8.06821 66.7771 8.01949ZM64.7406 6.46041C64.8088 6.08039 64.8965 5.71011 65.1303 5.3983C65.4909 4.92083 65.9878 4.78441 66.553 4.84288C66.6017 4.84288 66.6407 4.86236 66.6894 4.86236C67.3715 4.96955 67.5372 5.51523 67.4105 6.04141C67.313 6.43118 66.9915 6.57734 66.631 6.64555C66.4361 6.68453 66.2314 6.70402 66.0268 6.69428C65.6273 6.68453 65.2375 6.6553 64.8478 6.59683C64.7601 6.58709 64.7211 6.54811 64.7406 6.46041Z" fill="black"/>
</g>
<defs>
<clipPath id="clip0_2_58">
<rect width="77.9829" height="24" fill="black"/>
</clipPath>
</defs>
</svg>
